<?xml version="1.0" encoding="UTF-8" standalone="no"?>
<!-- Generator: Adobe Illustrator 16.0.0, SVG Export Plug-In . SVG Version: 6.00 Build 0)  -->
<!DOCTYPE svg  PUBLIC '-//W3C//DTD SVG 1.1//EN'  'http://www.w3.org/Graphics/SVG/1.1/DTD/svg11.dtd'>
<svg id="Capa_1" style="enable-background:new 0 0 430.123 430.123" xmlns="http://www.w3.org/2000/svg" xml:space="preserve" height="430.12px" viewBox="0 0 430.123 430.123" width="430.12px" version="1.1" y="0px" x="0px" xmlns:xlink="http://www.w3.org/1999/xlink">
	<path id="Behance" d="m388.43 119.12h-107.77v-26.77h107.78v26.77h-0.01zm-179.52 109.78c6.954 10.771 10.429 23.849 10.429 39.203 0 15.878-3.918 30.122-11.889 42.704-5.071 8.326-11.367 15.359-18.932 21.021-8.52 6.548-18.607 11.038-30.203 13.437-11.633 2.403-24.224 3.617-37.787 3.617h-120.53v-267.63h129.25c32.579 0.53 55.676 9.969 69.315 28.506 8.184 11.369 12.239 25.011 12.239 40.868 0 16.362-4.104 29.454-12.368 39.401-4.597 5.577-11.388 10.65-20.378 15.229 13.63 4.98 23.96 12.83 30.86 23.64zm-147.19-42.14h56.632c11.638 0 21.046-2.212 28.292-6.634 7.241-4.415 10.854-12.263 10.854-23.531 0-12.449-4.784-20.712-14.375-24.689-8.244-2.763-18.792-4.186-31.591-4.186h-49.808v59.04zm101.23 77.52c0-13.902-5.682-23.513-17.023-28.67-6.342-2.931-15.29-4.429-26.763-4.536h-57.448v71.322h56.556c11.619 0 20.612-1.521 27.102-4.694 11.7-5.84 17.57-16.94 17.57-33.42zm265.47-43.54c1.302 8.756 1.891 21.46 1.652 38.065h-139.58c0.77 19.266 7.421 32.739 20.035 40.449 7.607 4.835 16.83 7.196 27.63 7.196 11.388 0 20.67-2.879 27.815-8.797 3.893-3.137 7.327-7.565 10.296-13.152h51.16c-1.34 11.379-7.5 22.92-18.57 34.648-17.151 18.641-41.205 27.988-72.097 27.988-25.52 0-48.011-7.883-67.533-23.592-19.45-15.77-29.22-41.34-29.22-76.8 0-33.257 8.773-58.712 26.378-76.43 17.67-17.751 40.474-26.586 68.583-26.586 16.661 0 31.68 2.978 45.079 8.965 13.357 5.993 24.396 15.425 33.09 28.388 7.87 11.41 12.93 24.61 15.29 39.65zm-50.36 4.99c-0.938-13.322-5.386-23.405-13.395-30.296-7.943-6.91-17.866-10.379-29.706-10.379-12.886 0-22.836 3.708-29.906 10.996-7.118 7.273-11.547 17.161-13.362 29.68h86.38z"/>
</svg>
