<?xml version="1.0" encoding="iso-8859-1"?>
<!-- Generator: Adobe Illustrator 16.0.0, SVG Export Plug-In . SVG Version: 6.00 Build 0)  -->
<!DOCTYPE svg PUBLIC "-//W3C//DTD SVG 1.1//EN" "http://www.w3.org/Graphics/SVG/1.1/DTD/svg11.dtd">
<svg version="1.1" id="Capa_1" xmlns="http://www.w3.org/2000/svg" xmlns:xlink="http://www.w3.org/1999/xlink" x="0px" y="0px"
	 width="386.545px" height="386.545px" viewBox="0 0 386.545 386.545" style="enable-background:new 0 0 386.545 386.545;"
	 xml:space="preserve">
<g>
	<path d="M168.882,62.465c16.313-3.005,32.455-3.011,48.793,0c0.566,0.113,1.132,0.155,1.692,0.155c3.026,0,5.906-1.464,7.673-4.01
		c2.101-3.005,2.24-6.969,0.365-10.126L201.307,4.575c-1.692-2.834-4.74-4.569-8.043-4.569c-3.307,0-6.354,1.735-8.044,4.569
		l-26.095,43.909c-1.878,3.157-1.732,7.121,0.369,10.126C161.606,61.631,165.248,63.162,168.882,62.465z M193.276,27.659
		l8.354,14.06c-2.798-0.155-5.587-0.234-8.354-0.234c-2.771,0-5.557,0.079-8.357,0.234L193.276,27.659z"/>
	<path d="M381.966,185.237l-43.909-26.101c-3.147-1.876-7.118-1.727-10.126,0.368c-3.014,2.101-4.512,5.767-3.842,9.377
		c1.504,8.132,2.265,16.337,2.265,24.394c0,8.056-0.767,16.258-2.265,24.393c-0.67,3.611,0.828,7.277,3.842,9.378
		c1.602,1.114,3.478,1.681,5.353,1.681c1.65,0,3.301-0.433,4.773-1.315l43.909-26.099c2.838-1.68,4.579-4.736,4.579-8.037
		S384.804,186.915,381.966,185.237z M344.823,201.636c0.158-2.795,0.237-5.584,0.237-8.36c0-2.777-0.079-5.565-0.237-8.36
		l14.06,8.36L344.823,201.636z"/>
	<path d="M217.675,324.082c-16.338,3.009-32.474,3.009-48.793,0c-3.629-0.693-7.276,0.841-9.371,3.849
		c-2.101,3.009-2.244,6.972-0.368,10.126l26.095,43.909c1.69,2.838,4.738,4.573,8.044,4.573c3.304,0,6.357-1.735,8.044-4.573
		l26.104-43.909c1.875-3.154,1.729-7.117-0.372-10.126C224.952,324.923,221.28,323.389,217.675,324.082z M193.276,358.889
		l-8.357-14.055c5.596,0.316,11.119,0.316,16.712,0L193.276,358.889z"/>
	<path d="M53.268,228.727c1.875,0,3.748-0.566,5.349-1.681c3.011-2.101,4.515-5.767,3.848-9.378
		c-1.51-8.135-2.271-16.337-2.271-24.393c0-8.056,0.767-16.261,2.271-24.394c0.667-3.61-0.837-7.276-3.848-9.377
		c-3.005-2.089-6.978-2.231-10.126-0.368L4.582,185.237C1.738,186.915,0,189.975,0,193.275s1.738,6.357,4.576,8.037l43.909,26.099
		C49.964,228.288,51.615,228.727,53.268,228.727z M41.72,201.636l-14.06-8.36l14.06-8.36c-0.155,2.795-0.237,5.583-0.237,8.36
		C41.482,196.052,41.564,198.841,41.72,201.636z"/>
	<path d="M329.935,56.61c-2.333-2.332-5.718-3.242-8.927-2.457l-49.493,12.602c-3.556,0.91-6.253,3.809-6.893,7.426
		c-0.651,3.611,0.883,7.271,3.909,9.347c13.555,9.311,25.16,20.913,34.489,34.489c1.76,2.561,4.658,4.052,7.702,4.052
		c0.542,0,1.09-0.048,1.639-0.143c3.616-0.648,6.515-3.343,7.422-6.896l12.599-49.495C333.199,62.334,332.267,58.942,329.935,56.61z
		 M306.339,92.034c-3.721-4.159-7.666-8.108-11.819-11.822l15.856-4.037L306.339,92.034z"/>
	<path d="M271.521,319.796L321.02,332.4c0.768,0.183,1.534,0.28,2.302,0.28c2.454,0,4.841-0.956,6.619-2.734
		c2.332-2.332,3.258-5.724,2.454-8.921l-12.599-49.498c-0.907-3.551-3.806-6.254-7.423-6.899c-3.604-0.64-7.271,0.896-9.353,3.909
		c-9.329,13.579-20.935,25.185-34.489,34.489c-3.021,2.082-4.555,5.735-3.909,9.353
		C265.268,315.984,267.971,318.895,271.521,319.796z M306.339,294.514l4.037,15.868l-15.856-4.037
		C298.673,302.624,302.625,298.679,306.339,294.514z"/>
	<path d="M56.611,329.94c1.775,1.778,4.165,2.74,6.616,2.74c0.773,0,1.547-0.104,2.305-0.292l49.496-12.6
		c3.556-0.906,6.257-3.805,6.899-7.422c0.648-3.617-0.886-7.271-3.913-9.354c-13.554-9.304-25.157-20.91-34.486-34.488
		c-2.076-3.015-5.742-4.549-9.353-3.91c-3.617,0.652-6.515,3.35-7.419,6.899L54.16,321.014
		C53.35,324.217,54.279,327.608,56.611,329.94z M80.203,294.514c3.724,4.165,7.663,8.11,11.822,11.825l-15.856,4.037L80.203,294.514
		z"/>
	<path d="M74.175,121.932c0.548,0.101,1.096,0.143,1.641,0.143c3.042,0,5.94-1.492,7.706-4.052
		c9.328-13.576,20.931-25.179,34.486-34.489c3.026-2.076,4.558-5.735,3.909-9.347c-0.639-3.617-3.34-6.521-6.896-7.426
		L65.525,54.159c-3.197-0.791-6.588,0.119-8.921,2.457c-2.326,2.326-3.254,5.718-2.445,8.918l12.596,49.495
		C67.66,118.583,70.558,121.283,74.175,121.932z M92.025,80.206c-4.159,3.72-8.099,7.66-11.822,11.822l-4.034-15.865L92.025,80.206z
		"/>
	<path d="M315.577,193.275c0-67.435-54.863-122.301-122.307-122.301c-67.44,0-122.3,54.866-122.3,122.301
		c0,67.432,54.866,122.301,122.307,122.301C260.713,315.576,315.577,260.707,315.577,193.275z M238.458,286.354
		c-3.685,1.791-7.466,3.38-11.369,4.738c-10.619,3.678-21.969,5.778-33.819,5.778c-11.855,0-23.203-2.101-33.822-5.778
		c-3.903-1.358-7.688-2.947-11.365-4.738c-20.84-10.156-37.738-27.054-47.894-47.885c-1.796-3.678-3.386-7.471-4.737-11.374
		c-3.681-10.62-5.782-21.958-5.782-33.813c0-11.853,2.101-23.199,5.782-33.813c1.352-3.909,2.941-7.697,4.737-11.375
		c10.156-20.831,27.054-37.729,47.894-47.885c3.678-1.791,7.462-3.38,11.365-4.734c10.62-3.685,21.967-5.779,33.822-5.779
		c11.85,0,23.2,2.101,33.819,5.779c3.903,1.354,7.685,2.944,11.369,4.734c20.837,10.156,37.734,27.054,47.891,47.885
		c1.797,3.678,3.386,7.465,4.737,11.375c3.69,10.62,5.785,21.96,5.785,33.813c0,11.855-2.106,23.206-5.785,33.813
		c-1.352,3.903-2.94,7.696-4.737,11.374C276.192,259.3,259.294,276.197,238.458,286.354z"/>
	<path d="M232.898,159c-14.103,0-14.103,21.872,0,21.872S247,159,232.898,159z"/>
	<path d="M152.688,159c-14.103,0-14.103,21.872,0,21.872C166.794,180.872,166.8,159,152.688,159z"/>
	<path d="M223.119,190.48c-4.359,0-8.025,2.99-9.061,7.021c-1.048,0.657-3.166,1.571-6.284,2.332
		c-3.275,0.81-7.666,1.449-13.152,1.449s-9.877-0.64-13.156-1.449c-3.118-0.761-5.237-1.675-6.278-2.332
		c-1.035-4.03-4.704-7.021-9.061-7.021c-5.17,0-9.353,4.195-9.353,9.353c0,13.927,19.01,20.155,37.853,20.155
		c18.846,0,37.856-6.229,37.856-20.155C232.471,194.676,228.283,190.48,223.119,190.48z"/>
</g>
<g>
</g>
<g>
</g>
<g>
</g>
<g>
</g>
<g>
</g>
<g>
</g>
<g>
</g>
<g>
</g>
<g>
</g>
<g>
</g>
<g>
</g>
<g>
</g>
<g>
</g>
<g>
</g>
<g>
</g>
</svg>
