<?xml version="1.0" encoding="UTF-8" standalone="no"?>
<!-- Generator: Adobe Illustrator 16.0.0, SVG Export Plug-In . SVG Version: 6.00 Build 0)  -->
<!DOCTYPE svg  PUBLIC '-//W3C//DTD SVG 1.1//EN'  'http://www.w3.org/Graphics/SVG/1.1/DTD/svg11.dtd'>
<svg id="Capa_1" style="enable-background:new 0 0 386.545 386.545" xmlns="http://www.w3.org/2000/svg" xml:space="preserve" height="386.54px" viewBox="0 0 386.545 386.545" width="386.54px" version="1.1" y="0px" x="0px" xmlns:xlink="http://www.w3.org/1999/xlink">
	<path d="m168.88 62.465c16.313-3.005 32.455-3.011 48.793 0 0.566 0.113 1.132 0.155 1.692 0.155 3.026 0 5.906-1.464 7.673-4.01 2.101-3.005 2.24-6.969 0.365-10.126l-26.09-43.909c-1.692-2.834-4.74-4.569-8.043-4.569-3.307 0-6.354 1.735-8.044 4.569l-26.095 43.909c-1.878 3.157-1.732 7.121 0.369 10.126 2.1 3.021 5.74 4.552 9.37 3.855zm24.4-34.806l8.354 14.06c-2.798-0.155-5.587-0.234-8.354-0.234-2.771 0-5.557 0.079-8.357 0.234l8.36-14.06z"/>
	<path d="m381.97 185.24l-43.909-26.101c-3.147-1.876-7.118-1.727-10.126 0.368-3.014 2.101-4.512 5.767-3.842 9.377 1.504 8.132 2.265 16.337 2.265 24.394 0 8.056-0.767 16.258-2.265 24.393-0.67 3.611 0.828 7.277 3.842 9.378 1.602 1.114 3.478 1.681 5.353 1.681 1.65 0 3.301-0.433 4.773-1.315l43.909-26.099c2.838-1.68 4.579-4.736 4.579-8.037s-1.75-6.36-4.58-8.04zm-37.15 16.4c0.158-2.795 0.237-5.584 0.237-8.36 0-2.777-0.079-5.565-0.237-8.36l14.06 8.36-14.06 8.36z"/>
	<path d="m217.68 324.08c-16.338 3.009-32.474 3.009-48.793 0-3.629-0.693-7.276 0.841-9.371 3.849-2.101 3.009-2.244 6.972-0.368 10.126l26.095 43.909c1.69 2.838 4.738 4.573 8.044 4.573 3.304 0 6.357-1.735 8.044-4.573l26.104-43.909c1.875-3.154 1.729-7.117-0.372-10.126-2.1-3.01-5.77-4.54-9.37-3.85zm-24.4 34.81l-8.357-14.055c5.596 0.316 11.119 0.316 16.712 0l-8.35 14.05z"/>
	<path d="m53.268 228.73c1.875 0 3.748-0.566 5.349-1.681 3.011-2.101 4.515-5.767 3.848-9.378-1.51-8.135-2.271-16.337-2.271-24.393s0.767-16.261 2.271-24.394c0.667-3.61-0.837-7.276-3.848-9.377-3.005-2.089-6.978-2.231-10.126-0.368l-43.909 26.1c-2.844 1.68-4.582 4.74-4.582 8.04s1.738 6.357 4.576 8.037l43.909 26.099c1.479 0.87 3.13 1.31 4.783 1.31zm-11.548-27.09l-14.06-8.36 14.06-8.36c-0.155 2.795-0.237 5.583-0.237 8.36-0.001 2.77 0.081 5.56 0.237 8.36z"/>
	<path d="m329.94 56.61c-2.333-2.332-5.718-3.242-8.927-2.457l-49.493 12.602c-3.556 0.91-6.253 3.809-6.893 7.426-0.651 3.611 0.883 7.271 3.909 9.347 13.555 9.311 25.16 20.913 34.489 34.489 1.76 2.561 4.658 4.052 7.702 4.052 0.542 0 1.09-0.048 1.639-0.143 3.616-0.648 6.515-3.343 7.422-6.896l12.599-49.495c0.81-3.201-0.12-6.593-2.45-8.925zm-23.6 35.424c-3.721-4.159-7.666-8.108-11.819-11.822l15.856-4.037-4.04 15.859z"/>
	<path d="m271.52 319.8l49.5 12.6c0.768 0.183 1.534 0.28 2.302 0.28 2.454 0 4.841-0.956 6.619-2.734 2.332-2.332 3.258-5.724 2.454-8.921l-12.599-49.498c-0.907-3.551-3.806-6.254-7.423-6.899-3.604-0.64-7.271 0.896-9.353 3.909-9.329 13.579-20.935 25.185-34.489 34.489-3.021 2.082-4.555 5.735-3.909 9.353 0.65 3.6 3.35 6.52 6.9 7.42zm34.82-25.29l4.037 15.868-15.856-4.037c4.15-3.72 8.1-7.66 11.82-11.83z"/>
	<path d="m56.611 329.94c1.775 1.778 4.165 2.74 6.616 2.74 0.773 0 1.547-0.104 2.305-0.292l49.496-12.6c3.556-0.906 6.257-3.805 6.899-7.422 0.648-3.617-0.886-7.271-3.913-9.354-13.554-9.304-25.157-20.91-34.486-34.488-2.076-3.015-5.742-4.549-9.353-3.91-3.617 0.652-6.515 3.35-7.419 6.899l-12.602 49.49c-0.81 3.21 0.119 6.6 2.451 8.93zm23.592-35.43c3.724 4.165 7.663 8.11 11.822 11.825l-15.856 4.037 4.034-15.87z"/>
	<path d="m74.175 121.93c0.548 0.101 1.096 0.143 1.641 0.143 3.042 0 5.94-1.492 7.706-4.052 9.328-13.576 20.931-25.179 34.486-34.489 3.026-2.076 4.558-5.735 3.909-9.347-0.639-3.617-3.34-6.521-6.896-7.426l-49.495-12.599c-3.197-0.791-6.588 0.119-8.921 2.457-2.326 2.326-3.254 5.718-2.445 8.918l12.596 49.495c0.905 3.55 3.803 6.25 7.42 6.9zm17.85-41.724c-4.159 3.72-8.099 7.66-11.822 11.822l-4.034-15.865 15.856 4.043z"/>
	<path d="m315.58 193.28c0-67.435-54.863-122.3-122.31-122.3-67.44 0-122.3 54.866-122.3 122.3 0 67.432 54.866 122.3 122.31 122.3 67.43 0 122.3-54.87 122.3-122.3zm-77.12 93.07c-3.685 1.791-7.466 3.38-11.369 4.738-10.619 3.678-21.969 5.778-33.819 5.778-11.855 0-23.203-2.101-33.822-5.778-3.903-1.358-7.688-2.947-11.365-4.738-20.84-10.156-37.738-27.054-47.894-47.885-1.796-3.678-3.386-7.471-4.737-11.374-3.681-10.62-5.782-21.958-5.782-33.813 0-11.853 2.101-23.199 5.782-33.813 1.352-3.909 2.941-7.697 4.737-11.375 10.156-20.831 27.054-37.729 47.894-47.885 3.678-1.791 7.462-3.38 11.365-4.734 10.62-3.685 21.967-5.779 33.822-5.779 11.85 0 23.2 2.101 33.819 5.779 3.903 1.354 7.685 2.944 11.369 4.734 20.837 10.156 37.734 27.054 47.891 47.885 1.797 3.678 3.386 7.465 4.737 11.375 3.69 10.62 5.785 21.96 5.785 33.813 0 11.855-2.106 23.206-5.785 33.813-1.352 3.903-2.94 7.696-4.737 11.374-10.15 20.83-27.05 37.73-47.88 47.88z"/>
	<path d="m232.9 159c-14.103 0-14.103 21.872 0 21.872s14.1-21.87 0-21.87z"/>
	<path d="m152.69 159c-14.103 0-14.103 21.872 0 21.872 14.1 0 14.11-21.87 0-21.87z"/>
	<path d="m223.12 190.48c-4.359 0-8.025 2.99-9.061 7.021-1.048 0.657-3.166 1.571-6.284 2.332-3.275 0.81-7.666 1.449-13.152 1.449s-9.877-0.64-13.156-1.449c-3.118-0.761-5.237-1.675-6.278-2.332-1.035-4.03-4.704-7.021-9.061-7.021-5.17 0-9.353 4.195-9.353 9.353 0 13.927 19.01 20.155 37.853 20.155 18.846 0 37.856-6.229 37.856-20.155-0.02-5.14-4.21-9.34-9.37-9.34z"/>
</svg>
